<svg id="Layer_1" data-name="Layer 1" xmlns="http://www.w3.org/2000/svg" viewBox="0 0 1708.11 924.35"><defs><style>.cls-1{fill:#fee69b;}.cls-2,.cls-3,.cls-4{fill:#f3bf79;}.cls-2{opacity:0.49;}.cls-4{opacity:0.66;}.cls-5{fill:#e8b374;}.cls-6{opacity:0.58;}.cls-7{fill:#c1946a;}</style></defs><title>pennplay - hourclass</title><rect class="cls-1" width="1708.11" height="924.35"/><path class="cls-2" d="M1552.87,735.19c-93.46,32.1-962,188.1-1435.34-30.23C-23.17,640.05-19.91,444.44,1.28,416.88c46.65-60.69,104.31,83.58,504.16-30.23,381.42-108.57,364.14,62.9,671.49,35.57,151.72-13.49,418-84.75,482.43-35C1789.08,487.42,1815.08,645.13,1552.87,735.19Z"/><path class="cls-3" d="M1708.11,926H0L-15,497.33s216.22-76.42,527,15.43c325.22,96.13,227.22-13.55,650-54.18,146.71-14.1,561.18,9.11,561.18,9.11Z"/><path class="cls-4" d="M789,355.23c-27.16-3.56,253.17,89.51,57.59,146.41-52.42,15.25,28.33,51.1,167.33-2.37,254.25-97.81,180.3-68.39,55.41-75.28C972.65,418.65,837.7,361.6,789,355.23Z"/><path class="cls-4" d="M56.69,406.21c-27.16-3.56,149.94,55.13,224.92,144,109.74,130.15,87.16-122.32-38-117.37C168.6,435.84,105.36,412.58,56.69,406.21Z"/><path class="cls-5" d="M314.86,505.15c163,97.81,66.5,266.11,256,135.08,76.18-52.67,180.18-81,359.18-143,69.1-23.93-204,48.62-266.5,39.5C549,520,363.13,452.77,242.39,462.18,225.85,463.46,286.38,488.06,314.86,505.15Z"/><path class="cls-5" d="M1432.26,455.78c112.05,67.24,206.51,209.93,178.19,243-15.21,17.78,33.66-10.58,64.11-51.57,51.07-68.76,72.42-137.26,48.51-178.16C1717.94,460.29,1432.26,455.78,1432.26,455.78Z"/><g class="cls-6"><path class="cls-7" d="M1681.08,441.45c4,0,4-6.16,0-6.16s-4,6.16,0,6.16h0Z"/></g><g class="cls-6"><path class="cls-7" d="M1671.08,450.11c4,0,4-6.16,0-6.16s-4,6.16,0,6.16h0Z"/></g><g class="cls-6"><path class="cls-7" d="M1667.08,438.78c4,0,4-6.16,0-6.16s-4,6.16,0,6.16h0Z"/></g><g class="cls-6"><path class="cls-7" d="M332.63,492.87c4,0,4-6.16,0-6.16s-4,6.16,0,6.16h0Z"/></g><g class="cls-6"><path class="cls-7" d="M332.63,505.91c4,0,4-6.16,0-6.16s-4,6.16,0,6.16h0Z"/></g><g class="cls-6"><path class="cls-7" d="M314.64,484.57c4,0,4-6.16,0-6.16s-4,6.16,0,6.16h0Z"/></g><g class="cls-6"><path class="cls-7" d="M1640.57,664.87c4,0,4-6.16,0-6.16s-4,6.16,0,6.16h0Z"/></g><g class="cls-6"><path class="cls-7" d="M1631.57,675.37c4,0,4-6.16,0-6.16s-4,6.16,0,6.16h0Z"/></g><g class="cls-6"><path class="cls-7" d="M870.52,484.57c4,0,4-6.16,0-6.16s-4,6.16,0,6.16h0Z"/></g><g class="cls-6"><path class="cls-7" d="M892.25,473.9c4,0,4-6.16,0-6.16s-4,6.16,0,6.16h0Z"/></g><g class="cls-6"><path class="cls-7" d="M835.75,492.87c4,0,4-6.16,0-6.16s-4,6.16,0,6.16h0Z"/></g><g class="cls-6"><path class="cls-7" d="M861.82,469.16c4,0,4-6.16,0-6.16s-4,6.16,0,6.16h0Z"/></g><g class="cls-6"><path class="cls-7" d="M541.08,675.37c4,0,4-6.16,0-6.16s-4,6.16,0,6.16h0Z"/></g><g class="cls-6"><path class="cls-7" d="M527.08,691.32c4,0,4-6.16,0-6.16s-4,6.16,0,6.16h0Z"/></g><g class="cls-6"><path class="cls-7" d="M302.64,492.87c4,0,4-6.16,0-6.16s-4,6.16,0,6.16h0Z"/></g><g class="cls-6"><path class="cls-7" d="M541.08,691.32c4,0,4-6.16,0-6.16s-4,6.16,0,6.16h0Z"/></g><g class="cls-6"><path class="cls-7" d="M557.08,664.87c4,0,4-6.16,0-6.16s-4,6.16,0,6.16h0Z"/></g></svg>